<?xml version="1.0" standalone="no"?><!DOCTYPE svg PUBLIC "-//W3C//DTD SVG 1.1//EN" "http://www.w3.org/Graphics/SVG/1.1/DTD/svg11.dtd"><svg t="1700379926656" class="icon" viewBox="0 0 1024 1024" version="1.1" xmlns="http://www.w3.org/2000/svg" p-id="2677" xmlns:xlink="http://www.w3.org/1999/xlink" width="370" height="370"><path d="M762.368 486.912c28.16-1.024 50.688-23.552 51.712-51.712 1.024-29.696-22.016-54.784-51.712-55.808-23.04 1.024-41.984 15.872-49.152 36.352h-37.888c-2.56-33.792-7.68-64-16.384-91.136h54.272c7.168 20.48 26.112 35.328 49.152 36.352 28.16-1.024 50.688-23.552 51.712-51.712 1.024-29.696-22.016-54.784-51.712-55.808-23.04 1.024-41.984 15.872-49.152 36.352h-67.584c-2.048-4.096-3.584-7.68-5.632-11.776-31.232-57.344-80.896-91.136-147.968-99.84-35.84-4.608-68.608-3.072-97.792 5.12-26.112 7.68-49.664 19.968-70.144 37.888-24.064 20.992-44.032 49.664-56.32 82.944-9.728 25.6-15.872 54.272-15.872 78.336 0 41.984-25.6 89.088-54.784 142.848l-1.536 3.072c-4.608 7.68-5.12 17.408-1.536 26.112 7.68 16.384 28.672 20.48 47.616 24.576 2.56 0.512 6.144 1.536 9.216 2.048 0 15.36-0.512 28.672-0.512 40.96 0 12.8-0.512 24.576-0.512 37.376 0 16.384 7.68 28.672 22.016 35.328 9.728 4.608 22.016 6.144 33.28 7.68 29.184 3.584 41.472 7.68 43.52 28.16l7.68 67.072h214.528v-83.968c0-26.112 14.336-43.52 34.304-68.096 12.8-15.872 27.136-33.28 39.424-56.32h68.096c7.168 20.48 26.112 35.328 49.152 36.352 28.16-1.024 50.688-23.552 51.712-51.712 1.024-29.696-22.016-54.784-51.712-55.808-23.04 1.024-41.984 15.872-49.152 36.352H660.48c10.752-29.696 15.872-62.976 15.872-100.864v-4.608h36.864c7.168 22.016 26.112 37.376 49.152 37.888z m0-72.704c10.752 0 19.456 8.704 19.456 18.944 0 10.752-8.704 19.456-19.456 19.456-10.752 0-19.456-8.704-19.456-19.456 0-10.24 8.704-18.944 19.456-18.944z m0-125.952c10.752 0 19.456 8.704 19.456 19.456 0 10.752-8.704 19.456-19.456 19.456-10.752 0-19.456-8.704-19.456-19.456 0-10.752 8.704-19.456 19.456-19.456z m0 265.728c10.752 0 19.456 8.704 19.456 19.456 0 10.752-8.704 19.456-19.456 19.456-10.752 0-19.456-8.704-19.456-19.456 0-10.752 8.704-19.456 19.456-19.456z m-121.856-137.728h-70.144V324.608h51.712c9.728 26.624 15.872 56.832 18.432 91.648z m-34.304-125.952h-70.656v125.952H445.952c-5.12-15.872-17.92-28.16-33.28-33.792 5.632-77.312 37.888-138.752 88.064-166.912 47.104 9.216 81.92 33.792 105.472 74.752zM394.24 413.696c10.752 0 19.968 8.704 19.968 19.968 0 10.752-8.704 19.968-19.968 19.968-10.752 0-19.968-8.704-19.968-19.968s8.704-19.968 19.968-19.968z m142.336 350.208H387.584l-4.096-36.352c-2.56-22.016-12.8-37.888-30.208-47.104-13.824-7.68-29.696-9.728-43.52-11.264-8.704-1.024-17.92-2.56-23.04-4.608-2.048-1.024-2.56-1.024-2.56-4.096 0-12.288 0-24.064 0.512-36.864 0-14.848 0.512-31.232 0.512-51.2 0-5.632-2.56-16.384-18.432-22.016-5.12-1.536-11.776-3.072-18.432-4.608-5.12-1.024-14.336-3.072-19.968-5.12C260.096 483.328 286.72 433.664 286.72 382.976c0-28.672 12.8-93.696 60.416-135.168 27.136-23.552 60.928-35.84 100.864-36.864-17.408 16.384-31.744 36.352-43.52 60.416-15.36 31.744-24.576 69.632-27.136 110.08-22.016 7.168-37.888 27.648-37.888 51.712 0 27.136 19.968 49.664 46.08 53.76 11.264 51.712 32.256 98.304 60.928 132.608 27.136 32.768 59.904 53.76 96.256 62.464-3.584 10.24-5.632 20.992-5.632 33.28v48.64z m40.96-78.336z m1.024-60.416c-6.656 8.192-13.312 16.384-19.456 24.576-40.448-6.144-68.608-30.72-86.528-52.224-24.576-29.696-43.008-70.656-53.248-116.224 12.288-6.656 21.504-17.408 26.112-30.72h90.112v139.776h69.12c-8.192 12.8-17.408 24.064-26.112 34.816zM642.048 455.68c0 43.008-7.168 74.752-17.92 100.352h-53.248V450.56h71.168c-0.512 1.536 0 3.072 0 5.12z" fill="#323e48" p-id="2678"></path></svg>