<?xml version="1.0" standalone="no"?><!DOCTYPE svg PUBLIC "-//W3C//DTD SVG 1.1//EN" "http://www.w3.org/Graphics/SVG/1.1/DTD/svg11.dtd"><svg t="1700380435913" class="icon" viewBox="0 0 1024 1024" version="1.1" xmlns="http://www.w3.org/2000/svg" p-id="30142" xmlns:xlink="http://www.w3.org/1999/xlink" width="370" height="370"><path d="M512 30.648889L95.146667 271.317333v481.365334L512 993.351111l416.853333-240.668444V271.317333L512 30.648889z m14.222222-24.632889l416.853334 240.668444a28.444444 28.444444 0 0 1 14.222222 24.632889v481.365334a28.444444 28.444444 0 0 1-14.222222 24.632889L526.222222 1017.984a28.444444 28.444444 0 0 1-28.444444 0L80.924444 777.315556a28.444444 28.444444 0 0 1-14.222222-24.632889V271.317333a28.444444 28.444444 0 0 1 14.222222-24.632889L497.777778 6.016a28.444444 28.444444 0 0 1 28.444444 0z" fill="#323e48" p-id="30143"></path><path d="M698.154667 536.32c13.511111-27.022222 21.319111-57.642667 21.319111-90.069333C719.473778 333.354667 626.389333 241.777778 512 241.777778c-114.688 0-207.473778 91.576889-207.473778 204.472889 0 32.426667 7.822222 62.748444 21.333334 90.069333L241.777778 679.836444s53.447111 10.808889 107.491555 21.916445L421.319111 782.222222l77.468445-132.110222c4.508444 0 8.704 0.597333 13.212444 0.597333 4.508444 0 8.704-0.284444 13.212444-0.597333L602.680889 782.222222l72.049778-80.469333c54.044444-11.093333 107.491556-21.902222 107.491555-21.902222L698.154667 536.32zM512 613.489778c-93.070222 0-168.732444-75.662222-168.732444-169.045334 0-93.383111 75.662222-169.045333 168.732444-169.045333 93.070222 0 168.732444 75.662222 168.732444 169.045333 0 93.383111-75.662222 169.045333-168.732444 169.045334zM377.187556 444.444444c0 74.624 60.359111 135.111111 134.812444 135.111112 74.453333 0 134.812444-60.487111 134.812444-135.111112s-60.359111-135.111111-134.812444-135.111111c-74.453333 0-134.812444 60.487111-134.812444 135.111111z" fill="#323e48" p-id="30144"></path></svg>