<?xml version="1.0" standalone="no"?><!DOCTYPE svg PUBLIC "-//W3C//DTD SVG 1.1//EN" "http://www.w3.org/Graphics/SVG/1.1/DTD/svg11.dtd"><svg t="1700456719958" class="icon" viewBox="0 0 1024 1024" version="1.1" xmlns="http://www.w3.org/2000/svg" p-id="1766" xmlns:xlink="http://www.w3.org/1999/xlink" width="400" height="400"><path d="M572.608 222.24c127.008 0 230.304 103.296 230.304 230.304 0 0.704-0.096 1.44-0.128 2.144-0.096 1.696-0.224 3.392-0.256 5.12l-0.864 34.816 34.88 0.128c84.384 0.224 153.056 69.12 153.056 153.504 0 84.16-68.512 153.024-152.736 153.472l-7.456 0.032-624.544 0c-93.984-0.096-170.464-76.608-170.464-170.56 0-72.8 46.336-137.6 115.296-161.28l19.2-6.56 3.392-20c8.352-49.344 50.752-85.152 100.768-85.152 15.936 0 31.36 3.712 45.792 10.976l31.104 15.616 15.008-31.392c38.144-79.712 119.648-131.2 207.616-131.2zM572.608 188.096c-105.216 0-195.84 61.6-238.4 150.56-18.4-9.28-39.136-14.592-61.152-14.592-67.552 0-123.488 49.152-134.4 113.6-80.448 27.584-138.368 103.68-138.368 193.536 0 112.992 91.584 204.576 204.544 204.672l632.192-0.032c103.2-0.544 186.688-84.288 186.688-187.584 0-103.456-83.68-187.328-187.072-187.616 0.064-2.72 0.384-5.376 0.384-8.096 0-146.048-118.4-264.416-264.416-264.416l0 0z" fill="#bfbfbf" p-id="1767"></path></svg>