<?xml version="1.0" standalone="no"?><!DOCTYPE svg PUBLIC "-//W3C//DTD SVG 1.1//EN" "http://www.w3.org/Graphics/SVG/1.1/DTD/svg11.dtd"><svg t="1700553501538" class="icon" viewBox="0 0 1024 1024" version="1.1" xmlns="http://www.w3.org/2000/svg" p-id="1771" width="64" height="64" xmlns:xlink="http://www.w3.org/1999/xlink"><path d="M908.8 316.8V496c0 75.2-60.8 136-136 136H235.2l144 144c16 16 16 41.6 0 56-8 8-17.6 11.2-28.8 11.2s-20.8-3.2-28.8-11.2L139.2 649.6c-32-32-32-83.2 0-115.2L320 352c16-16 41.6-16 56 0 16 16 16 41.6 0 56L233.6 550.4h537.6c30.4 0 56-25.6 56-56V316.8c0-30.4-25.6-56-56-56h-184c-22.4 0-40-17.6-40-40s17.6-40 40-40h185.6c73.6 0 136 60.8 136 136z" p-id="1772" fill="#2c2c2c"></path></svg>