<?xml version="1.0" standalone="no"?><!DOCTYPE svg PUBLIC "-//W3C//DTD SVG 1.1//EN" "http://www.w3.org/Graphics/SVG/1.1/DTD/svg11.dtd"><svg t="1700379965263" class="icon" viewBox="0 0 1024 1024" version="1.1" xmlns="http://www.w3.org/2000/svg" p-id="5811" xmlns:xlink="http://www.w3.org/1999/xlink" width="370" height="370"><path d="M512 51.2c253.952 0 460.8 206.848 460.8 460.8s-206.848 460.8-460.8 460.8-460.8-206.848-460.8-460.8 206.848-460.8 460.8-460.8m0-51.2C229.376 0 0 229.376 0 512s229.376 512 512 512 512-229.376 512-512S794.624 0 512 0z" fill="#323e48" p-id="5812"></path><path d="M313.856 438.272c-44.032 0-78.848-46.592-78.848-106.496S269.824 225.28 313.856 225.28s78.848 46.592 78.848 106.496-34.816 106.496-78.848 106.496z m0-161.792c-11.264 0-27.648 21.504-27.648 55.296s16.384 55.296 27.648 55.296 27.648-21.504 27.648-55.296S325.12 276.48 313.856 276.48zM710.144 438.272c-44.032 0-78.848-46.592-78.848-106.496S666.112 225.28 710.144 225.28s78.848 46.592 78.848 106.496-34.816 106.496-78.848 106.496z m0-161.792c-11.264 0-27.648 21.504-27.648 55.296s16.384 55.296 27.648 55.296 27.648-21.504 27.648-55.296-16.384-55.296-27.648-55.296zM512 875.52c-170.496 0-308.736-136.704-308.736-304.64v-20.992l20.992-4.096c5.12-1.024 125.44-23.552 282.624-23.552 156.672 0 287.744 22.528 293.376 23.552l20.992 3.584v21.504c-0.512 167.936-138.752 304.64-309.248 304.64z m-257.024-283.136C266.24 721.92 377.344 824.32 512 824.32s245.248-101.888 256.512-231.424c-43.52-6.144-146.944-19.456-262.144-19.456-114.176 0-209.92 12.288-251.392 18.944z" fill="#323e48" p-id="5813"></path></svg>