<svg width="58" height="68" xmlns="http://www.w3.org/2000/svg" xmlns:xlink="http://www.w3.org/1999/xlink" xml:space="preserve" overflow="hidden"><defs><clipPath id="clip0"><rect x="699" y="263" width="58" height="68"/></clipPath></defs><g clip-path="url(#clip0)" transform="translate(-699 -263)"><path d="M13.5743 58.7949C12.8361 58.0504 12.4208 57.0452 12.418 55.9968L12.418 33.531C12.418 32.9563 11.9522 32.4904 11.3774 32.4904 10.8027 32.4904 10.3368 32.9563 10.3368 33.531L10.3368 55.9968C10.3418 57.5987 10.9822 59.1331 12.1174 60.2634L17.2511 65.3624C17.4413 65.5598 17.7054 65.6688 17.9796 65.663 18.2557 65.6615 18.5207 65.5539 18.7196 65.3624 19.1251 64.9642 19.131 64.3126 18.7327 63.9071 18.7284 63.9027 18.724 63.8983 18.7196 63.894Z" transform="matrix(1.00647 0 0 1 699 263.001)"/><path d="M33.057 25.4373 16.5343 8.91463 0 25.4373 10.3252 25.4373 10.3252 29.3107C10.3252 29.8855 10.7911 30.3514 11.3659 30.3514 11.9406 30.3514 12.4065 29.8855 12.4065 29.3107L12.4065 23.3792 5.00653 23.3792 16.569 11.8168 28.1314 23.3792 20.4424 23.3792 20.6505 66.9696C20.6505 67.5443 21.1163 68.0102 21.6911 68.0102L21.6911 68.0102C22.2659 68.0102 22.7317 67.5443 22.7317 66.9696L22.5352 25.4373Z" transform="matrix(1.00647 0 0 1 699 263.001)"/><path d="M47.2903 42.5382 47.2903 0 34.8954 0 35.092 42.5497 24.5586 42.5497 41.0929 59.084 57.6271 42.5497ZM29.5767 44.6194 37.1732 44.6194 36.9998 2.08124 45.2438 2.08124 45.2438 44.6194 52.609 44.6194 41.0466 56.1818Z" transform="matrix(1.00647 0 0 1 699 263.001)"/></g></svg>